<?xml version="1.0" encoding="utf-8"?>
<!-- Generator: Adobe Illustrator 26.0.3, SVG Export Plug-In . SVG Version: 6.00 Build 0)  -->
<svg version="1.0" id="katman_1" xmlns="http://www.w3.org/2000/svg" xmlns:xlink="http://www.w3.org/1999/xlink" x="0px" y="0px"
	 viewBox="0 0 600 450" style="enable-background:new 0 0 600 450;" xml:space="preserve">
<style type="text/css">
	.st0{fill-rule:evenodd;clip-rule:evenodd;fill:#010202;}
	.st1{fill:#010202;}
</style>
<path class="st0" d="M101.1,202.3c2.5-2.8,7.6-6.7,16.4-6.7c15.1,0,25.3,12,25.3,29.8c0,17.5-10.7,29.8-26,29.8
	c-7.3,0-12-3.1-14.4-5.4c0,0.5,0,1.1,0,1.8v23.8H86.6V212c0-0.9-0.3-1.2-1.2-1.2H80v-13.9h13.1C99.2,196.9,100.8,200,101.1,202.3z
	 M114.4,209.6c-6,0-12.5,4.2-12.5,16.1c0,7.6,3.8,15.7,12.3,15.7c6.3,0,12.6-4.9,12.6-15.8C126.8,216,121.8,209.6,114.4,209.6z"/>
<path class="st1" d="M163.8,238.9v-33.6c0-5.7-2.7-8.4-8.3-8.4h-14v13.9h5.4c0.9,0,1.2,0.3,1.2,1.2v33.5c0,5.8,2.6,8.4,8.3,8.4h14
	v-13.8H165C164.1,240.1,163.8,239.8,163.8,238.9z"/>
<path class="st0" d="M188.3,202.3c2.5-2.8,7.6-6.7,16.4-6.7c15.1,0,25.3,12,25.3,29.8c0,17.5-10.7,29.8-26,29.8
	c-7.3,0-12-3.1-14.4-5.4c0,0.5,0,1.1,0,1.8v23.8h-15.7V212c0-0.9-0.3-1.2-1.2-1.2h-5.4v-13.9h13.2C186.5,196.9,188,200,188.3,202.3z
	 M189.2,225.7c0,7.6,3.9,15.7,12.3,15.7c6.3,0,12.6-4.9,12.6-15.8c0-9.6-5-16-12.4-16C195.7,209.6,189.2,213.8,189.2,225.7z"/>
<path class="st0" d="M230.8,225.4c0-17.5,11.8-29.8,28.7-29.8c15.1,0,25.2,10.9,25.2,27.1c0,1.6-0.3,5-0.3,5.1l-0.1,1h-37.2
	c1.4,7.6,7.1,12.4,15,12.4c7.9,0,13.9-5.4,14.4-5.8c0,0,0,0,0,0l1-1l6.8,11.4l-0.6,0.6l0,0c-0.4,0.4-8.8,8.6-22.6,8.6
	C243.5,255.2,230.8,242.6,230.8,225.4z M259.5,208.4c-5.9,0-10.1,3.2-11.8,8.8h20.8C267.8,212,264.2,208.4,259.5,208.4z"/>
<path class="st0" d="M341.6,183.9v55c0,0.9,0.3,1.2,1.2,1.2h5.3v13.8h-13.6c-5.9,0-7.4-3.1-7.8-5.6c-2.4,2.8-7.4,6.9-16.1,6.9
	c-15.1,0-25.3-12-25.3-29.8c0-17.5,10.6-29.8,25.8-29.8c7.8,0,12.3,2.8,14.6,4.9v-9.9c0-0.9-0.3-1.2-1.2-1.2h-5.4v-13.9h14
	C338.9,175.4,341.6,178.2,341.6,183.9z M301.4,225.4c0,9.7,4.8,16,12.3,16c6,0,12.5-4.2,12.5-16.1c0-7.8-3.8-15.7-12.3-15.7
	C306.4,209.6,301.4,215.9,301.4,225.4z"/>
<path class="st1" d="M383,196.1c-6.5,0-12.5,3.8-16.1,9.8v-1.3c0-5.2-2.8-7.8-8.4-7.8h-13.5v13.9h5.4c0.9,0,1.2,0.3,1.2,1.2v41.9
	h15.7v-22.8c0-3,0.4-5.9,1.1-8.6c2.4-7.9,8.6-10.7,13.7-10.7c1.8,0,3.1,0.2,3.1,0.2l1.3,0.2v-15.7l-1-0.2
	C385.6,196.3,384.3,196.1,383,196.1z"/>
<path class="st1" d="M408.9,238.9v-33.6c0-5.7-2.7-8.4-8.3-8.4H388v13.9h4c0.9,0,1.2,0.3,1.2,1.2v33.5c0,5.8,2.6,8.4,8.3,8.4h14
	v-13.8h-5.4C409.2,240.1,408.9,239.8,408.9,238.9z"/>
<path class="st1" d="M468.1,196.9h-8.4c-4.9,0-7.5,1.7-9.1,5.9l-10.2,28.8c-0.4,1.1-0.7,2.3-1,3.4c-0.3-1.1-0.6-2.4-1-3.4
	l-10.2-28.8c-1.6-4.2-4.1-5.9-9-5.9h-8.9v13.9h2.3c1.2,0,1.6,0.4,1.9,1.2l15.8,41.9h17.6l15.8-41.9c0.3-0.8,0.7-1.2,1.9-1.2h2.4
	V196.9z"/>
<path class="st0" d="M466.4,225.4c0-17.5,11.8-29.8,28.7-29.8c15.1,0,25.2,10.9,25.2,27.1c0,1.6-0.3,5-0.3,5.1l-0.1,1h-37.2
	c1.4,7.6,7.1,12.4,15,12.4c8.2,0,14.4-5.8,14.4-5.8l1-1l6.8,11.4l-0.6,0.6c-0.4,0.3-8.8,8.6-22.6,8.6
	C479.1,255.2,466.4,242.6,466.4,225.4z M495,208.4c-5.9,0-10.1,3.2-11.8,8.8H504C503.4,212,499.8,208.4,495,208.4z"/>
<path class="st1" d="M162.7,175.4h-14v14.8h14V175.4z"/>
<path class="st1" d="M407.8,175.4h-14v14.8h14V175.4z"/>
</svg>
